<svg width="40" height="40" viewBox="0 0 40 40" fill="none" xmlns="http://www.w3.org/2000/svg">
<path fill-rule="evenodd" clip-rule="evenodd" d="M20 40C8.9543 40 0 31.0457 0 20C0 8.9543 8.9543 0 20 0C31.0457 0 40 8.9543 40 20C40 31.0457 31.0457 40 20 40ZM20.2787 18.8775C21.9163 18.8775 29.8787 14.4 29.8787 14.4L29.8915 13.6C29.8915 12.7168 29.1747 12 28.2891 12H12.2683C11.3835 12 10.6667 12.7168 10.6667 13.6V14.3128C10.6667 14.3128 18.7163 18.8775 20.2787 18.8775ZM10.6795 16.8C10.6787 16.8 18.7163 21.0775 20.2787 21.0775C21.9915 21.0775 29.8787 16.8 29.8787 16.8L29.8915 26.4C29.8915 27.2832 29.1747 28 28.2891 28H12.2683C11.3843 28 10.6667 27.2832 10.6667 26.4L10.6795 16.8Z" fill="#414141"/>
</svg>
